<svg version="1.1" viewBox="0.0 0.0 465.38582677165357 467.9475065616798" fill="none" stroke="none" stroke-linecap="square" stroke-miterlimit="10" xmlns:xlink="http://www.w3.org/1999/xlink" xmlns="http://www.w3.org/2000/svg"><clipPath id="p.0"><path d="m0 0l465.38583 0l0 467.9475l-465.38583 0l0 -467.9475z" clip-rule="nonzero"/></clipPath><g clip-path="url(#p.0)"><path fill="#000000" fill-opacity="0.0" d="m0 0l465.38583 0l0 467.9475l-465.38583 0z" fill-rule="evenodd"/><path fill="#cd412b" d="m97.60647 -0.0019272966l369.07086 98.897644l-98.897644 369.07086l-369.07086 -98.897644z" fill-rule="evenodd"/><path fill="#1e2020" d="m202.15347 249.48486l25.491302 6.8307495q-4.378372 14.226532 -12.275513 22.689667q-7.893097 8.447998 -18.94542 10.937775q-11.048279 2.474701 -24.707031 -1.1853638q-10.610046 -2.8431091 -17.900177 -8.598022q-7.2750244 -5.7508545 -11.214249 -14.231323q-3.9241333 -8.47641 -4.133255 -19.467606q-0.19404602 -10.987137 3.3770294 -24.313843l5.799469 -21.6427q3.5710754 -13.326706 9.426178 -22.741425q5.855118 -9.414719 13.545227 -14.811295q7.709259 -5.4076233 16.930374 -6.7381134q9.24025 -1.3415527 19.66919 1.4530334q13.930405 3.7328491 21.891434 11.511612q7.9801483 7.7677307 10.407089 19.175278q2.4420319 11.411575 -0.375885 26.15332l-25.687485 -6.883316q2.276703 -9.16037 1.8759613 -14.848572q-0.396698 -5.7032776 -3.6861115 -8.881744q-3.2702637 -3.1895142 -10.107178 -5.0215607q-5.0861816 -1.362915 -9.2500305 -0.55371094q-4.163849 0.80921936 -7.592972 4.1285095q-3.4099884 3.308258 -6.2265015 9.412262q-2.801422 6.1080475 -5.264374 15.299393l-5.847992 21.823807q-2.4184723 9.025345 -3.1702728 15.634094q-0.7367096 6.6127777 0.28134155 11.204636q1.0331421 4.5959167 4.1770477 7.411865q3.1439056 2.8159485 8.758316 4.320404q6.474701 1.7349854 10.972748 0.8859253q4.5171967 -0.8601074 7.7725983 -5.3421326q3.2704926 -4.4779663 6.00914 -13.611603zm37.855957 8.364624l1.7147675 -6.399231q2.9846497 -11.13829 7.9572144 -19.010101q4.9725494 -7.871826 11.529282 -12.358902q6.5567017 -4.4870605 14.413757 -5.616913q7.872162 -1.1257935 16.64093 1.2239227q8.844208 2.369934 15.083588 7.277115q6.2544556 4.911209 9.719208 12.083664q3.479828 7.1764984 3.8952942 16.492126q0.4154663 9.315613 -2.5691833 20.453918l-1.7147522 6.399231q-2.9563599 11.032623 -7.974182 18.892334q-5.017853 7.85968 -11.631958 12.379883q-6.5990295 4.5242615 -14.417847 5.632019q-7.799652 1.0966797 -16.56842 -1.2530212q-8.753662 -2.3456726 -15.020264 -7.211609q-6.247452 -4.8769836 -9.760422 -12.110901q-3.51297 -7.233917 -3.8831635 -16.537384q-0.37019348 -9.303497 2.5861511 -20.336151zm26.345764 0.20098877l-1.7147522 6.399231q-1.7592468 6.565277 -2.1780396 11.629456q-0.4147644 5.0490723 0.53601074 8.684692q0.95077515 3.6355896 3.0859375 5.8091736q2.1542969 2.1625671 5.47464 3.0523071q3.3354492 0.8937683 6.35791 0.1184082q3.0264587 -0.7904663 5.577179 -3.487793q2.5658264 -2.6932983 4.6860046 -7.2854004q2.1242676 -4.6071777 3.8835144 -11.172424l1.7147522 -6.399231q1.7147827 -6.399231 2.0510864 -11.517868q0.33633423 -5.118622 -0.5812988 -8.696823q-0.9135742 -3.5932922 -3.0767517 -5.9038086q-2.144043 -2.3215485 -5.3738403 -3.187027q-3.2449036 -0.86950684 -6.187042 0.08912659q-2.9230042 0.9476013 -5.556183 3.5904999q-2.6291199 2.6277924 -4.806732 7.2530212q-2.1776123 4.625229 -3.892395 11.02446z" fill-rule="nonzero"/><path fill="#f3f3f3" d="m355.24576 109.76866l63.212616 16.944885l-16.944885 63.2126l-63.212585 -16.944885z" fill-rule="evenodd"/></g></svg>