<svg version="1.1" viewBox="0.0 0.0 465.38582677165357 467.9475065616798" fill="none" stroke="none" stroke-linecap="square" stroke-miterlimit="10" xmlns:xlink="http://www.w3.org/1999/xlink" xmlns="http://www.w3.org/2000/svg"><clipPath id="p.0"><path d="m0 0l465.38583 0l0 467.9475l-465.38583 0l0 -467.9475z" clip-rule="nonzero"/></clipPath><g clip-path="url(#p.0)"><path fill="#000000" fill-opacity="0.0" d="m0 0l465.38583 0l0 467.9475l-465.38583 0z" fill-rule="evenodd"/><path fill="#cd412b" d="m97.60414 -0.002394488l369.07086 98.89764l-98.897644 369.07086l-369.07086 -98.89761z" fill-rule="evenodd"/><path fill="#1e2020" d="m202.15115 249.48439l25.491287 6.8307343q-4.378357 14.2265625 -12.275513 22.689667q-7.893097 8.448029 -18.94542 10.937805q-11.048279 2.4746704 -24.707016 -1.1853638q-10.610062 -2.8431091 -17.900177 -8.598022q-7.2750397 -5.7508545 -11.214264 -14.231323q-3.924118 -8.47644 -4.133255 -19.467606q-0.19403076 -10.987152 3.3770447 -24.313858l5.7994537 -21.6427q3.5710754 -13.326706 9.426193 -22.741425q5.8551025 -9.414703 13.545227 -14.811295q7.709259 -5.4076233 16.930359 -6.7381134q9.24025 -1.3415375 19.66919 1.4530334q13.93042 3.7328491 21.891434 11.511627q7.9801636 7.7677307 10.4071045 19.175262q2.4420319 11.411591 -0.375885 26.153336l-25.6875 -6.883316q2.2767181 -9.160385 1.8759613 -14.848572q-0.396698 -5.703293 -3.6860962 -8.88176q-3.2702637 -3.1895142 -10.107193 -5.0215607q-5.0861816 -1.362915 -9.2500305 -0.5536957q-4.1638336 0.8092041 -7.5929565 4.1285095q-3.4099884 3.3082428 -6.2265167 9.412247q-2.801422 6.1080475 -5.264374 15.299408l-5.847992 21.823807q-2.418457 9.02533 -3.1702576 15.634079q-0.7367096 6.612793 0.28134155 11.204651q1.0331268 4.595886 4.1770325 7.411865q3.1439056 2.8159485 8.758331 4.320404q6.474701 1.7349854 10.972748 0.8859253q4.5171814 -0.86013794 7.772583 -5.3421326q3.2704926 -4.4779663 6.0091553 -13.611618zm37.85594 8.364639l1.7147675 -6.399231q2.984665 -11.13829 7.9572144 -19.010117q4.9725647 -7.871826 11.529266 -12.358887q6.556732 -4.487076 14.413788 -5.616913q7.872162 -1.1257935 16.64093 1.2239075q8.844208 2.369934 15.083588 7.277115q6.2544556 4.9112244 9.719177 12.083679q3.479828 7.1764984 3.8953247 16.492111q0.4154663 9.315628 -2.5691833 20.453903l-1.7147827 6.399231q-2.9563293 11.032654 -7.974182 18.892334q-5.0178223 7.85968 -11.631958 12.379913q-6.5990295 4.5242615 -14.417816 5.6319885q-7.799652 1.0967102 -16.56842 -1.2530212q-8.753693 -2.345642 -15.020264 -7.2115784q-6.247452 -4.877014 -9.760422 -12.110901q-3.51297 -7.233917 -3.8831787 -16.537415q-0.37019348 -9.303467 2.5861511 -20.33612zm26.34578 0.20098877l-1.7147522 6.399231q-1.7592468 6.5652466 -2.1780396 11.629425q-0.4147644 5.049103 0.53601074 8.684692q0.9507446 3.63562 3.085907 5.809204q2.1543274 2.1625366 5.4746704 3.0522766q3.3354492 0.8937988 6.3578796 0.1184082q3.0264893 -0.7904358 5.5772095 -3.487793q2.565796 -2.6932983 4.6860046 -7.28537q2.1242676 -4.6071777 3.8835144 -11.172424l1.7147522 -6.399231q1.7147522 -6.399231 2.0510864 -11.517868q0.33633423 -5.118637 -0.5812988 -8.696838q-0.9135742 -3.593277 -3.0767517 -5.9037933q-2.144043 -2.3215637 -5.3738403 -3.1870422q-3.2449036 -0.86950684 -6.187042 0.089141846q-2.9230042 0.9476013 -5.556183 3.5904846q-2.6291199 2.6277924 -4.806732 7.2530212q-2.1776123 4.625229 -3.892395 11.024475z" fill-rule="nonzero"/><path fill="#f3f3f3" d="m365.0414 104.11134l63.212585 16.944878l-16.944885 63.212593l-63.212585 -16.94487z" fill-rule="evenodd"/><path fill="#000000" fill-opacity="0.0" d="m30.342386 251.06052l369.07086 98.897644l-31.62204 117.98425l-369.07086 -98.897644z" fill-rule="evenodd"/><path fill="#1e2020" d="m164.24275 355.1017l5.29747 1.4195251q-0.9065552 2.959961 -2.5584412 4.717285q-1.6367798 1.761383 -3.942337 2.2759094q-2.2904663 0.5185852 -5.1278534 -0.24172974q-2.2035065 -0.5904846 -3.7258606 -1.7910461q-1.5072479 -1.1965332 -2.330368 -2.953827q-0.81907654 -1.7723999 -0.8715668 -4.0511475q-0.033355713 -2.289795 0.7109375 -5.0667725l1.2054138 -4.497528q0.7442932 -2.7769775 1.9636078 -4.731079q1.2193298 -1.9541321 2.8150635 -3.0794373q1.6108093 -1.1213074 3.5295715 -1.3997803q1.9187622 -0.2784729 4.092087 0.30389404q2.897766 0.77648926 4.549408 2.3999634q1.6557007 1.6083374 2.1690521 3.978241q0.51335144 2.369873 -0.084350586 5.4449463l-5.342758 -1.4316711q0.4794922 -1.9096985 0.39341736 -3.0974731q-0.08607483 -1.1877441 -0.76867676 -1.8397522q-0.6785431 -0.66711426 -2.0972443 -1.0473022q-1.0564728 -0.28308105 -1.9273224 -0.11203003q-0.8708496 0.17105103 -1.587326 0.8525696q-0.70140076 0.6855774 -1.287796 1.9681396q-0.5823517 1.267456 -1.0960693 3.1841736l-1.2135162 4.52771q-0.5056305 1.8865356 -0.66539 3.2672424q-0.15571594 1.3656006 0.05545044 2.3280334q0.21520996 0.9473877 0.8646698 1.5419922q0.6535034 0.5795288 1.830719 0.8949585q1.3432312 0.35995483 2.2784882 0.18997192q0.93930054 -0.1850586 1.6108246 -1.1212769q0.68659973 -0.9321594 1.2606964 -2.8327026zm7.876938 1.738678l0.35595703 -1.328125q0.6188965 -2.309143 1.6546326 -3.9403992q1.0397797 -1.6463318 2.389679 -2.5787048q1.3690338 -0.9434509 2.9988556 -1.1699219q1.6489563 -0.23754883 3.4751587 0.25180054q1.8412781 0.4934082 3.1353607 1.5195618q1.2981415 1.0110779 2.0118713 2.5126343q0.73287964 1.4904785 0.8099365 3.4360962q0.096206665 1.9345703 -0.5226898 4.2437134l-0.35595703 1.328125q-0.61483765 2.2940063 -1.6697235 3.9363403q-1.0357361 1.6312561 -2.4198608 2.5706177q-1.3690338 0.9434204 -2.9988556 1.1699219q-1.6147308 0.23052979 -3.440918 -0.25881958q-1.8262024 -0.48934937 -3.1243286 -1.5004272q-1.2981415 -1.0110779 -2.0269623 -2.5166626q-0.72883606 -1.5055847 -0.8099365 -3.4360962q-0.07707214 -1.9456177 0.53778076 -4.2396545zm5.4723206 0.042877197l-0.35595703 1.328125q-0.36810303 1.3733826 -0.4580078 2.4331055q-0.07077026 1.0486755 0.113479614 1.8097839q0.20336914 0.75009155 0.6466675 1.2085876q0.44734192 0.4433899 1.1415863 0.62942505q0.69425964 0.18603516 1.3184967 0.029785156q0.62828064 -0.1713562 1.1644287 -0.7232666q0.5402069 -0.5669861 0.9731903 -1.5186157q0.45213318 -0.9626465 0.8202362 -2.336029l0.35595703 -1.328125q0.35595703 -1.328125 0.41567993 -2.395935q0.07481384 -1.0637817 -0.113464355 -1.8098145q-0.1882782 -0.7460327 -0.6426239 -1.2236328q-0.45030212 -0.49273682 -1.1143646 -0.6706848q-0.6791687 -0.18197632 -1.3004456 0.023590088q-0.6021271 0.19451904 -1.1533813 0.7424011q-0.53616333 0.5519104 -1.0033875 1.510498q-0.45211792 0.962677 -0.8080902 2.290802zm18.753845 -13.722931l5.0861816 1.362915l-6.2819366 23.438385l-1.5878754 4.4759216l-4.7239532 -1.2658691l7.5075836 -28.011353zm10.645813 21.600952l-0.34786987 1.2979431q-0.64315796 2.3996887 -1.501831 4.094574q-0.8546295 1.679779 -1.9479523 2.6809082q-1.0892792 0.98605347 -2.4584808 1.2662048q-1.3692017 0.28015137 -3.0142822 -0.16067505q-1.4639893 -0.39230347 -2.3494873 -1.3736877q-0.86634827 -0.99243164 -1.2591095 -2.4241333q-0.37361145 -1.442749 -0.3733368 -3.2543945q0.015365601 -1.8076477 0.34205627 -3.8715515l0.51371765 -1.9167175q0.72206116 -1.9094238 1.6127777 -3.482483q0.90986633 -1.5841064 1.9509125 -2.6315918q1.0450897 -1.0625916 2.2876434 -1.4737244q1.261673 -0.4222107 2.7256622 -0.029907227q1.6752625 0.44891357 2.7168274 1.3912354q1.0455933 0.9272156 1.4917145 2.3408813q0.4501648 1.398529 0.3461151 3.2956238q-0.10404968 1.8970947 -0.7350769 4.2514954zm-5.4340515 -0.064971924l0.34786987 -1.2979431q0.36001587 -1.3432007 0.50624084 -2.371643q0.16133118 -1.0244141 0.04850769 -1.7502136q-0.10877991 -0.74090576 -0.5631256 -1.2185364q-0.45433044 -0.47763062 -1.3296967 -0.7121887q-0.78482056 -0.21029663 -1.3939514 -0.05001831q-0.6091461 0.16030884 -1.1401672 0.63272095q-0.5159302 0.47644043 -0.8922882 1.2167664q-0.37231445 0.7252197 -0.65330505 1.652832l-0.92225647 3.4410706q-0.3206482 1.2567139 -0.2927704 2.2994385q0.027877808 1.0427551 0.5352783 1.7449036q0.5074005 0.7021179 1.6091614 0.997345q0.86026 0.23052979 1.4653625 0.08532715q0.6050873 -0.14520264 1.0617371 -0.70224q0.47579956 -0.5680847 0.85246277 -1.5509644q0.3766632 -0.98287964 0.76094055 -2.4166565zm15.663559 9.211914l2.4432068 -9.115753q0.23864746 -0.8904419 0.16893005 -1.4753113q-0.06971741 -0.58483887 -0.41249084 -0.93551636q-0.33872986 -0.36575317 -0.92733765 -0.52349854q-0.6489868 -0.17388916 -1.1635284 -0.004425049q-0.5104828 0.15438843 -0.85931396 0.6109009q-0.3447876 0.44143677 -0.53489685 1.1507568l-5.1314697 -1.3750305q0.3397827 -1.2677612 1.1412201 -2.2662354q0.80548096 -1.0135498 1.9868774 -1.6190186q1.1854401 -0.62057495 2.6430206 -0.7476196q1.4767151 -0.13812256 3.1369019 0.30673218q1.9620209 0.52575684 3.3083954 1.5982971q1.3614502 1.0765686 1.8635864 2.764038q0.52127075 1.6764526 -0.093566895 3.970459l-2.3542175 8.783752q-0.4449463 1.6601562 -0.5580292 2.7460022q-0.113098145 1.0858765 0.035827637 1.918396l-0.08494568 0.31695557l-5.1314697 -1.375061q-0.12869263 -0.9079895 0.017852783 -2.179016q0.16566467 -1.2820435 0.5054474 -2.5498047zm2.629181 -7.335083l-0.80200195 3.0527039l-1.8714752 -0.50149536q-0.7395325 -0.19815063 -1.3475952 -0.102264404q-0.59295654 0.09991455 -1.0724792 0.44055176q-0.47547913 0.3255005 -0.81030273 0.8504944q-0.3156891 0.513916 -0.48558044 1.1477966q-0.19010925 0.7093506 -0.12739563 1.2599487q0.0667572 0.535553 0.40548706 0.90130615q0.33874512 0.36575317 0.8820648 0.51135254q0.8300934 0.22244263 1.5419312 0.041137695q0.72691345 -0.17727661 1.1431122 -0.583374q0.43533325 -0.4171753 0.4429474 -0.8680725l0.6281891 2.3035889q-0.38928223 0.6074524 -0.964798 1.2458801q-0.57147217 0.62332153 -1.2957458 1.0924683q-0.7242737 0.46914673 -1.6595306 0.6390991q-0.93525696 0.16998291 -2.0671997 -0.1333313q-1.5847168 -0.4246521 -2.7036133 -1.500946q-1.1188812 -1.0762634 -1.5366821 -2.5955505q-0.40270996 -1.5152588 0.08268738 -3.3263245q0.40046692 -1.4941406 1.2070312 -2.572113q0.8106079 -1.0930786 2.0030518 -1.6794128q1.1924438 -0.5863342 2.792862 -0.64276123q1.6004181 -0.056427002 3.592636 0.477417l2.0224 0.54190063zm17.91919 -12.312775l-7.5075836 28.011383l-5.1314697 -1.375061l7.5075836 -28.011353l5.1314697 1.3750305zm10.431824 11.676117l-1.0314789 3.8485413l-10.066727 -2.6975098l1.0314941 -3.8485413l10.066711 2.6975098zm-6.4510193 -6.9535522l5.086197 1.362915l-4.9794464 18.578644q-0.21842957 0.81500244 -0.17376709 1.3122559q0.048721313 0.48214722 0.33221436 0.7522278q0.30262756 0.2590332 0.8459625 0.40463257q0.40750122 0.109191895 0.73657227 0.14883423q0.34417725 0.043701172 0.5263672 0.027832031l-1.0719299 3.9994507q-0.6643677 0.06463623 -1.3608093 0.0074157715q-0.70047 -0.042114258 -1.6060333 -0.28475952q-1.5394287 -0.41253662 -2.5025635 -1.2853088q-0.96313477 -0.8727722 -1.2532043 -2.3255005q-0.2709198 -1.4637451 0.29133606 -3.5615845l5.1291046 -19.137054z" fill-rule="nonzero"/><path fill="#000000" fill-opacity="0.0" d="m120.40851 38.562157l63.2126 16.944881l-16.944885 63.212597l-63.212593 -16.944885z" fill-rule="evenodd"/><path fill="#1e2020" d="m138.6872 89.360596l-1.4159698 5.282257l-19.423622 -5.206726l1.2096405 -4.512558l11.957741 -8.943253q1.7561798 -1.4219055 2.8447113 -2.5860062q1.0885315 -1.1641083 1.6927032 -2.1506882q0.60821533 -1.0016785 0.8671417 -1.9675751q0.38838196 -1.4488525 0.32444763 -2.5983505q-0.048828125 -1.1454544 -0.55914307 -1.896965q-0.5103302 -0.7515106 -1.4913177 -1.0144806q-1.177185 -0.3155594 -2.1410828 0.20253754q-0.96388245 0.5180969 -1.6769867 1.6696091q-0.69799805 1.1555557 -1.1227875 2.7402267l-6.368889 -1.7072525q0.78889465 -2.942974 2.659752 -5.0944366q1.8859482 -2.147419 4.481827 -3.0206985q2.5958862 -0.87327576 5.7048798 -0.039878845q3.0033417 0.8050842 4.7524414 2.4872017q1.7642059 1.6861649 2.258316 4.0671654q0.4941101 2.381012 -0.2866974 5.2938004q-0.43692017 1.6299515 -1.2913055 3.0671234q-0.8392792 1.4412155 -2.04776 2.7511063q-1.1934052 1.3139343 -2.795395 2.5830536q-1.5868835 1.2731628 -3.4627075 2.5982895l-5.9437866 4.974411l11.2738495 3.022087zm30.729538 -21.43055l-0.97094727 3.622116l-18.278305 26.547684l-6.7009277 -1.796257l17.882614 -24.890503l-13.266022 -3.5561142l1.4119263 -5.2671623l19.921661 5.3402367z" fill-rule="nonzero"/></g></svg>